<mxfile host="app.diagrams.net" modified="2022-07-07T04:55:44.259Z" agent="5.0 (Windows NT 10.0; Win64; x64) AppleWebKit/537.36 (KHTML, like Gecko) Chrome/103.0.5060.114 Safari/537.36" etag="azKkHizB2sIixiwWU8-a" version="20.0.4" type="github">
  <diagram id="lsYqOXnfDiaivIdEOEWc" name="Page-1">
    <mxGraphModel dx="569" dy="1416" grid="1" gridSize="10" guides="1" tooltips="1" connect="1" arrows="1" fold="1" page="1" pageScale="1" pageWidth="850" pageHeight="1100" math="0" shadow="0">
      <root>
        <mxCell id="0" />
        <mxCell id="1" parent="0" />
        <mxCell id="s43dKZY_mTrpJ9go2xti-13" style="edgeStyle=orthogonalEdgeStyle;rounded=0;orthogonalLoop=1;jettySize=auto;html=1;exitX=0;exitY=0.75;exitDx=0;exitDy=0;entryX=1;entryY=0.5;entryDx=0;entryDy=0;" parent="1" source="s43dKZY_mTrpJ9go2xti-1" target="s43dKZY_mTrpJ9go2xti-9" edge="1">
          <mxGeometry relative="1" as="geometry" />
        </mxCell>
        <mxCell id="hOt24TIBv7MaHTjzwmdE-18" style="edgeStyle=orthogonalEdgeStyle;rounded=0;orthogonalLoop=1;jettySize=auto;html=1;exitX=1;exitY=0.75;exitDx=0;exitDy=0;entryX=0;entryY=0.5;entryDx=0;entryDy=0;" edge="1" parent="1" source="s43dKZY_mTrpJ9go2xti-1" target="s43dKZY_mTrpJ9go2xti-8">
          <mxGeometry relative="1" as="geometry">
            <Array as="points">
              <mxPoint x="650" y="460" />
              <mxPoint x="650" y="360" />
            </Array>
          </mxGeometry>
        </mxCell>
        <mxCell id="s43dKZY_mTrpJ9go2xti-1" value="ESP32 WROOM 32E" style="rounded=0;whiteSpace=wrap;html=1;fillColor=#f8cecc;strokeColor=#b85450;" parent="1" vertex="1">
          <mxGeometry x="310" y="250" width="290" height="280" as="geometry" />
        </mxCell>
        <mxCell id="hOt24TIBv7MaHTjzwmdE-3" style="edgeStyle=orthogonalEdgeStyle;rounded=0;orthogonalLoop=1;jettySize=auto;html=1;exitX=0.5;exitY=1;exitDx=0;exitDy=0;entryX=0.25;entryY=0;entryDx=0;entryDy=0;" edge="1" parent="1" source="s43dKZY_mTrpJ9go2xti-3" target="s43dKZY_mTrpJ9go2xti-1">
          <mxGeometry relative="1" as="geometry" />
        </mxCell>
        <mxCell id="s43dKZY_mTrpJ9go2xti-3" value="USB C / Serial Converter (CH340)" style="rounded=0;whiteSpace=wrap;html=1;" parent="1" vertex="1">
          <mxGeometry x="250" y="90" width="100" height="60" as="geometry" />
        </mxCell>
        <mxCell id="hOt24TIBv7MaHTjzwmdE-14" style="edgeStyle=orthogonalEdgeStyle;rounded=0;orthogonalLoop=1;jettySize=auto;html=1;entryX=0;entryY=0.5;entryDx=0;entryDy=0;" edge="1" parent="1" source="s43dKZY_mTrpJ9go2xti-4" target="s43dKZY_mTrpJ9go2xti-11">
          <mxGeometry relative="1" as="geometry" />
        </mxCell>
        <mxCell id="s43dKZY_mTrpJ9go2xti-4" value="Lipo Battery Charging (MCP73831)" style="rounded=0;whiteSpace=wrap;html=1;" parent="1" vertex="1">
          <mxGeometry x="515" y="30" width="120" height="60" as="geometry" />
        </mxCell>
        <mxCell id="hOt24TIBv7MaHTjzwmdE-17" value="" style="edgeStyle=orthogonalEdgeStyle;rounded=0;orthogonalLoop=1;jettySize=auto;html=1;" edge="1" parent="1" source="s43dKZY_mTrpJ9go2xti-7" target="s43dKZY_mTrpJ9go2xti-1">
          <mxGeometry relative="1" as="geometry" />
        </mxCell>
        <mxCell id="s43dKZY_mTrpJ9go2xti-7" value="Status LEDs" style="rounded=0;whiteSpace=wrap;html=1;" parent="1" vertex="1">
          <mxGeometry x="660" y="250" width="120" height="60" as="geometry" />
        </mxCell>
        <mxCell id="s43dKZY_mTrpJ9go2xti-8" value="Pin Breakout" style="whiteSpace=wrap;html=1;" parent="1" vertex="1">
          <mxGeometry x="665" y="330" width="120" height="60" as="geometry" />
        </mxCell>
        <mxCell id="s43dKZY_mTrpJ9go2xti-9" value="Vibration Motor + Driver" style="rounded=0;whiteSpace=wrap;html=1;" parent="1" vertex="1">
          <mxGeometry x="160" y="440" width="90" height="60" as="geometry" />
        </mxCell>
        <mxCell id="s43dKZY_mTrpJ9go2xti-14" style="edgeStyle=orthogonalEdgeStyle;rounded=0;orthogonalLoop=1;jettySize=auto;html=1;exitX=1;exitY=0.75;exitDx=0;exitDy=0;entryX=-0.019;entryY=0.539;entryDx=0;entryDy=0;entryPerimeter=0;" parent="1" source="s43dKZY_mTrpJ9go2xti-10" target="s43dKZY_mTrpJ9go2xti-1" edge="1">
          <mxGeometry relative="1" as="geometry" />
        </mxCell>
        <mxCell id="s43dKZY_mTrpJ9go2xti-17" style="edgeStyle=orthogonalEdgeStyle;rounded=0;orthogonalLoop=1;jettySize=auto;html=1;exitX=1;exitY=0.5;exitDx=0;exitDy=0;entryX=-0.019;entryY=0.357;entryDx=0;entryDy=0;entryPerimeter=0;" parent="1" source="s43dKZY_mTrpJ9go2xti-10" target="s43dKZY_mTrpJ9go2xti-1" edge="1">
          <mxGeometry relative="1" as="geometry" />
        </mxCell>
        <mxCell id="s43dKZY_mTrpJ9go2xti-18" style="edgeStyle=orthogonalEdgeStyle;rounded=0;orthogonalLoop=1;jettySize=auto;html=1;exitX=1;exitY=0.25;exitDx=0;exitDy=0;entryX=0.004;entryY=0.179;entryDx=0;entryDy=0;entryPerimeter=0;" parent="1" source="s43dKZY_mTrpJ9go2xti-10" target="s43dKZY_mTrpJ9go2xti-1" edge="1">
          <mxGeometry relative="1" as="geometry" />
        </mxCell>
        <mxCell id="s43dKZY_mTrpJ9go2xti-10" value="Push Buttons" style="rounded=0;whiteSpace=wrap;html=1;" parent="1" vertex="1">
          <mxGeometry x="160" y="220" width="90" height="200" as="geometry" />
        </mxCell>
        <mxCell id="hOt24TIBv7MaHTjzwmdE-15" style="edgeStyle=orthogonalEdgeStyle;rounded=0;orthogonalLoop=1;jettySize=auto;html=1;exitX=0;exitY=0.75;exitDx=0;exitDy=0;entryX=1;entryY=0.5;entryDx=0;entryDy=0;" edge="1" parent="1" source="s43dKZY_mTrpJ9go2xti-11" target="hOt24TIBv7MaHTjzwmdE-12">
          <mxGeometry relative="1" as="geometry">
            <Array as="points">
              <mxPoint x="680" y="120" />
            </Array>
          </mxGeometry>
        </mxCell>
        <mxCell id="hOt24TIBv7MaHTjzwmdE-21" style="edgeStyle=orthogonalEdgeStyle;rounded=0;orthogonalLoop=1;jettySize=auto;html=1;exitX=0.5;exitY=1;exitDx=0;exitDy=0;entryX=1;entryY=0.5;entryDx=0;entryDy=0;" edge="1" parent="1" source="s43dKZY_mTrpJ9go2xti-11" target="hOt24TIBv7MaHTjzwmdE-19">
          <mxGeometry relative="1" as="geometry" />
        </mxCell>
        <mxCell id="s43dKZY_mTrpJ9go2xti-11" value="Battery" style="rounded=0;whiteSpace=wrap;html=1;" parent="1" vertex="1">
          <mxGeometry x="680" y="10" width="90" height="150" as="geometry" />
        </mxCell>
        <mxCell id="hOt24TIBv7MaHTjzwmdE-20" style="edgeStyle=orthogonalEdgeStyle;rounded=0;orthogonalLoop=1;jettySize=auto;html=1;exitX=0.5;exitY=1;exitDx=0;exitDy=0;entryX=1;entryY=0.882;entryDx=0;entryDy=0;entryPerimeter=0;" edge="1" parent="1" source="h4DjuXXrMUamPbEEn1RI-1" target="s43dKZY_mTrpJ9go2xti-1">
          <mxGeometry relative="1" as="geometry" />
        </mxCell>
        <mxCell id="h4DjuXXrMUamPbEEn1RI-1" value="D Pad" style="rounded=0;whiteSpace=wrap;html=1;" parent="1" vertex="1">
          <mxGeometry x="670" y="420" width="120" height="50" as="geometry" />
        </mxCell>
        <mxCell id="hOt24TIBv7MaHTjzwmdE-8" style="edgeStyle=orthogonalEdgeStyle;rounded=0;orthogonalLoop=1;jettySize=auto;html=1;exitX=0;exitY=0.5;exitDx=0;exitDy=0;entryX=0;entryY=0.5;entryDx=0;entryDy=0;" edge="1" parent="1" source="hOt24TIBv7MaHTjzwmdE-1" target="s43dKZY_mTrpJ9go2xti-3">
          <mxGeometry relative="1" as="geometry" />
        </mxCell>
        <mxCell id="hOt24TIBv7MaHTjzwmdE-9" style="edgeStyle=orthogonalEdgeStyle;rounded=0;orthogonalLoop=1;jettySize=auto;html=1;exitX=1;exitY=0.5;exitDx=0;exitDy=0;entryX=0.5;entryY=0;entryDx=0;entryDy=0;" edge="1" parent="1" source="hOt24TIBv7MaHTjzwmdE-1" target="s43dKZY_mTrpJ9go2xti-4">
          <mxGeometry relative="1" as="geometry" />
        </mxCell>
        <mxCell id="hOt24TIBv7MaHTjzwmdE-13" style="edgeStyle=orthogonalEdgeStyle;rounded=0;orthogonalLoop=1;jettySize=auto;html=1;entryX=0.5;entryY=0;entryDx=0;entryDy=0;" edge="1" parent="1" source="hOt24TIBv7MaHTjzwmdE-1" target="hOt24TIBv7MaHTjzwmdE-12">
          <mxGeometry relative="1" as="geometry" />
        </mxCell>
        <mxCell id="hOt24TIBv7MaHTjzwmdE-1" value="USB Conenctor" style="rounded=0;whiteSpace=wrap;html=1;" vertex="1" parent="1">
          <mxGeometry x="362.5" y="-30" width="135" height="60" as="geometry" />
        </mxCell>
        <mxCell id="hOt24TIBv7MaHTjzwmdE-24" style="edgeStyle=orthogonalEdgeStyle;rounded=0;orthogonalLoop=1;jettySize=auto;html=1;exitX=0.5;exitY=1;exitDx=0;exitDy=0;entryX=0.518;entryY=-0.048;entryDx=0;entryDy=0;entryPerimeter=0;" edge="1" parent="1" source="hOt24TIBv7MaHTjzwmdE-12" target="hOt24TIBv7MaHTjzwmdE-23">
          <mxGeometry relative="1" as="geometry" />
        </mxCell>
        <mxCell id="hOt24TIBv7MaHTjzwmdE-12" value="Voltage Regulator (AP2112k-3.3)" style="rounded=0;whiteSpace=wrap;html=1;" vertex="1" parent="1">
          <mxGeometry x="370" y="90" width="120" height="60" as="geometry" />
        </mxCell>
        <mxCell id="hOt24TIBv7MaHTjzwmdE-22" style="edgeStyle=orthogonalEdgeStyle;rounded=0;orthogonalLoop=1;jettySize=auto;html=1;exitX=0.5;exitY=1;exitDx=0;exitDy=0;entryX=0.952;entryY=0;entryDx=0;entryDy=0;entryPerimeter=0;" edge="1" parent="1" source="hOt24TIBv7MaHTjzwmdE-19" target="s43dKZY_mTrpJ9go2xti-1">
          <mxGeometry relative="1" as="geometry" />
        </mxCell>
        <mxCell id="hOt24TIBv7MaHTjzwmdE-19" value="Battery Gauge (MAX17048)" style="rounded=0;whiteSpace=wrap;html=1;" vertex="1" parent="1">
          <mxGeometry x="530" y="160" width="120" height="60" as="geometry" />
        </mxCell>
        <mxCell id="hOt24TIBv7MaHTjzwmdE-25" style="edgeStyle=orthogonalEdgeStyle;rounded=0;orthogonalLoop=1;jettySize=auto;html=1;exitX=0.5;exitY=1;exitDx=0;exitDy=0;entryX=0.5;entryY=0;entryDx=0;entryDy=0;" edge="1" parent="1" source="hOt24TIBv7MaHTjzwmdE-23" target="s43dKZY_mTrpJ9go2xti-1">
          <mxGeometry relative="1" as="geometry" />
        </mxCell>
        <mxCell id="hOt24TIBv7MaHTjzwmdE-23" value="Power Switch" style="rounded=0;whiteSpace=wrap;html=1;" vertex="1" parent="1">
          <mxGeometry x="410" y="170" width="90" height="50" as="geometry" />
        </mxCell>
      </root>
    </mxGraphModel>
  </diagram>
</mxfile>
